<svg xmlns="http://www.w3.org/2000/svg" viewBox="0 0 420 160" width="100%" height="100%">
  <defs>
    <pattern id="stripes" patternUnits="userSpaceOnUse" width="5" height="5" patternTransform="rotate(-30)">
      <line x1="0" y1="0" x2="0" y2="5" stroke="#ffffff" stroke-width="1.8" />
    </pattern>
  </defs>

  <g fill="#005b9f" stroke="#005b9f" stroke-width="0.5" stroke-linejoin="round">
    
    <polygon points="20,45 46,60 46,90 20,75" />
    <polygon points="46,60 72,45 72,75 46,90" />
    
    <polygon points="76,75 102,60 128,75 102,90" />
    <polygon points="102,90 128,75 128,105 102,120" />
    
    <polygon points="25,90 51,75 77,90 51,105" />
    <polygon points="25,90 51,75 77,90 51,105" fill="url(#stripes)" stroke="none" />
    <polygon points="25,90 51,105 51,135 25,120" />
    <polygon points="51,105 77,90 77,120 51,135" />

  </g>
  
  <g transform="scale(1.25, 1)">
    <text x="115" y="118" font-family="Arial, Helvetica, sans-serif" font-weight="900" font-size="82" letter-spacing="-1.5" fill="#000000">LCC</text>
  </g>
</svg>
